<svg xmlns="http://www.w3.org/2000/svg" viewBox="0 0 24 24" role="img" aria-labelledby="discord-title">
  <title id="discord-title">Discord</title>
  <path fill="#000000" d="M19.54 5.34a16.1 16.1 0 0 0-4.02-1.24.06.06 0 0 0-.07.03c-.17.3-.37.69-.5 1a14.8 14.8 0 0 0-4.46 0 10.4 10.4 0 0 0-.51-1 .07.07 0 0 0-.07-.03 16 16 0 0 0-4.02 1.24.06.06 0 0 0-.03.02C3.32 9.16 2.62 12.86 2.96 16.5c0 .02.01.04.03.05a16.2 16.2 0 0 0 4.93 2.49.07.07 0 0 0 .08-.02c.38-.52.72-1.07 1.01-1.66.02-.04 0-.08-.04-.1-.55-.21-1.07-.46-1.57-.75-.04-.02-.04-.08 0-.11l.31-.24a.06.06 0 0 1 .07 0 11.6 11.6 0 0 0 10.32 0 .06.06 0 0 1 .07 0l.31.24c.04.03.04.09 0 .11-.5.3-1.02.54-1.57.75-.04.02-.06.06-.04.1.3.59.63 1.14 1.01 1.66.02.02.05.03.08.02a16.16 16.16 0 0 0 4.94-2.49.07.07 0 0 0 .03-.05c.42-4.21-.71-7.88-2.86-11.14a.05.05 0 0 0-.03-.02ZM8.68 14.29c-.94 0-1.72-.86-1.72-1.92s.76-1.92 1.72-1.92c.96 0 1.74.87 1.72 1.92 0 1.06-.76 1.92-1.72 1.92Zm6.65 0c-.94 0-1.72-.86-1.72-1.92s.76-1.92 1.72-1.92c.96 0 1.74.87 1.72 1.92 0 1.06-.76 1.92-1.72 1.92Z"/>
</svg>
