<svg xmlns="http://www.w3.org/2000/svg" viewBox="0 0 24 24" role="img" aria-labelledby="github-title">
  <title id="github-title">GitHub</title>
  <path fill="#000000" d="M12 .5a11.5 11.5 0 0 0-3.64 22.41c.58.11.79-.25.79-.56v-2.02c-3.22.7-3.9-1.39-3.9-1.39-.53-1.34-1.29-1.7-1.29-1.7-1.05-.72.08-.71.08-.71 1.16.08 1.78 1.2 1.78 1.2 1.04 1.77 2.72 1.26 3.38.96.11-.75.41-1.26.74-1.55-2.57-.29-5.27-1.28-5.27-5.72 0-1.26.45-2.3 1.19-3.11-.12-.29-.52-1.47.11-3.07 0 0 .97-.31 3.17 1.19a10.94 10.94 0 0 1 5.78 0c2.2-1.5 3.17-1.19 3.17-1.19.63 1.6.23 2.78.11 3.07.74.81 1.19 1.85 1.19 3.11 0 4.45-2.71 5.42-5.29 5.71.42.36.79 1.07.79 2.16v3.2c0 .31.21.68.8.56A11.5 11.5 0 0 0 12 .5Z"/>
</svg>
